#Comment line ignore any data following # character 
#Hierarchical Translation and Rotation (.htr) file 
[Header]	
#Header keywords are followed by a single value 
FileType HTR		#Single word string
DataType HTRS		#Translation followed by rotation and scale data
FileVersion 1		#integer
NumSegments 84		#integer
NumFrames 2		#integer
DataFrameRate 30		#integer, data frame rate in this file
EulerRotationOrder ZYX
CalibrationUnits mm
RotationUnits Degrees
GlobalAxisofGravity Y
BoneLengthAxis Y
ScaleFactor 1.00
[SegmentNames&Hierarchy]
#CHILD	PARENT
MASTER GLOBAL
root MASTER
chest root
L_mid_tent01 root
R_mid_tent01 root
spine01 root
Bip01_Neck chest
L_humerus chest
R_humerus chest
weapon_bone chest
Bip01_Head Bip01_Neck
eye_left_bone Bip01_Head
eye_right_bone Bip01_Head
L_forearm L_humerus
L_front_hand L_forearm
L_weapon_bone L_forearm
L_front_hand01_01 L_front_hand
L_front_hand02_01 L_front_hand
L_front_hand03_01 L_front_hand
L_front_hand01_02 L_front_hand01_01
L_front_hand02_02 L_front_hand02_01
L_front_hand03_02 L_front_hand03_01
R_forearm R_humerus
R_front_hand R_forearm
R_weapon_bone R_forearm
R_front_hand01_01 R_front_hand
R_front_hand02_01 R_front_hand
R_front_hand03_01 R_front_hand
R_front_hand01_02 R_front_hand01_01
R_front_hand02_02 R_front_hand02_01
R_front_hand03_02 R_front_hand03_01
null_rope01_connect L_mid_tent01
Rope1_Seg01 null_rope01_connect
Rope1_Seg02 Rope1_Seg01
Rope1_Seg03 Rope1_Seg02
Rope1_Seg04 Rope1_Seg03
Rope1_Seg05 Rope1_Seg04
Rope1_Seg06 Rope1_Seg05
Rope1_Seg07 Rope1_Seg06
Rope1_Seg09 Rope1_Seg07
L_mid_hand01 Rope1_Seg09
L_mid_hand02 Rope1_Seg09
L_mid_hand03 Rope1_Seg09
null_rope02_connect R_mid_tent01
Rope2_Seg01 null_rope02_connect
Rope2_Seg02 Rope2_Seg01
Rope2_Seg03 Rope2_Seg02
Rope2_Seg04 Rope2_Seg03
Rope2_Seg05 Rope2_Seg04
Rope2_Seg06 Rope2_Seg05
Rope2_Seg07 Rope2_Seg06
Rope2_Seg09 Rope2_Seg07
R_mid_hand01 Rope2_Seg09
R_mid_hand02 Rope2_Seg09
R_mid_hand03 Rope2_Seg09
spine02 spine01
spine03 spine02
pelvis spine03
null_rope03_connect pelvis
null_rope04_connect pelvis
Rope3_Seg01 null_rope03_connect
Rope3_Seg02 Rope3_Seg01
Rope3_Seg03 Rope3_Seg02
Rope3_Seg04 Rope3_Seg03
Rope3_Seg05 Rope3_Seg04
Rope3_Seg06 Rope3_Seg05
Rope3_Seg07 Rope3_Seg06
Rope3_Seg08 Rope3_Seg07
Rope3_Seg09 Rope3_Seg08
R_rear_hand01 Rope3_Seg09
R_rear_hand02 Rope3_Seg09
R_rear_hand03 Rope3_Seg09
Rope4_Seg01 null_rope04_connect
Rope4_Seg02 Rope4_Seg01
Rope4_Seg03 Rope4_Seg02
Rope4_Seg04 Rope4_Seg03
Rope4_Seg05 Rope4_Seg04
Rope4_Seg06 Rope4_Seg05
Rope4_Seg07 Rope4_Seg06
Rope4_Seg08 Rope4_Seg07
Rope4_Seg09 Rope4_Seg08
L_rear_hand01 Rope4_Seg09
L_rear_hand02 Rope4_Seg09
L_rear_hand03 Rope4_Seg09
[BasePosition]
#SegmentName Tx, Ty, Tz, Rx, Ry, Rz, BoneLength
MASTER 0.000000 0.000000 0.000000 -90.000000 0.000000 0.000000 10.000000 
root 0.000000 0.000000 0.000000 0.000000 0.000000 0.000000 10.000000 
chest 0.000000 0.000000 0.000000 0.000000 0.000000 0.000000 10.000000 
L_mid_tent01 0.000000 0.000000 0.000000 0.000000 0.000000 0.000000 10.000000 
R_mid_tent01 0.000000 0.000000 0.000000 0.000000 0.000000 0.000000 10.000000 
spine01 0.000000 0.000000 0.000000 0.000000 0.000000 0.000000 10.000000 
Bip01_Neck 0.000000 0.000000 0.000000 0.000000 0.000000 0.000000 10.000000 
L_humerus 0.000000 0.000000 0.000000 0.000000 0.000000 0.000000 10.000000 
R_humerus 0.000000 0.000000 0.000000 0.000000 0.000000 0.000000 10.000000 
weapon_bone 0.000000 0.000000 0.000000 0.000000 0.000000 0.000000 10.000000 
Bip01_Head 0.000000 0.000000 0.000000 0.000000 0.000000 0.000000 10.000000 
eye_left_bone 0.000000 0.000000 0.000000 0.000000 0.000000 0.000000 10.000000 
eye_right_bone 0.000000 0.000000 0.000000 0.000000 0.000000 0.000000 10.000000 
L_forearm 0.000000 0.000000 0.000000 0.000000 0.000000 0.000000 10.000000 
L_front_hand 0.000000 0.000000 0.000000 0.000000 0.000000 0.000000 10.000000 
L_weapon_bone 0.000000 0.000000 0.000000 0.000000 0.000000 0.000000 10.000000 
L_front_hand01_01 0.000000 0.000000 0.000000 0.000000 0.000000 0.000000 10.000000 
L_front_hand02_01 0.000000 0.000000 0.000000 0.000000 0.000000 0.000000 10.000000 
L_front_hand03_01 0.000000 0.000000 0.000000 0.000000 0.000000 0.000000 10.000000 
L_front_hand01_02 0.000000 0.000000 0.000000 0.000000 0.000000 0.000000 10.000000 
L_front_hand02_02 0.000000 0.000000 0.000000 0.000000 0.000000 0.000000 10.000000 
L_front_hand03_02 0.000000 0.000000 0.000000 0.000000 0.000000 0.000000 10.000000 
R_forearm 0.000000 0.000000 0.000000 0.000000 0.000000 0.000000 10.000000 
R_front_hand 0.000000 0.000000 0.000000 0.000000 0.000000 0.000000 10.000000 
R_weapon_bone 0.000000 0.000000 0.000000 0.000000 0.000000 0.000000 10.000000 
R_front_hand01_01 0.000000 0.000000 0.000000 0.000000 0.000000 0.000000 10.000000 
R_front_hand02_01 0.000000 0.000000 0.000000 0.000000 0.000000 0.000000 10.000000 
R_front_hand03_01 0.000000 0.000000 0.000000 0.000000 0.000000 0.000000 10.000000 
R_front_hand01_02 0.000000 0.000000 0.000000 0.000000 0.000000 0.000000 10.000000 
R_front_hand02_02 0.000000 0.000000 0.000000 0.000000 0.000000 0.000000 10.000000 
R_front_hand03_02 0.000000 0.000000 0.000000 0.000000 0.000000 0.000000 10.000000 
null_rope01_connect 0.000000 0.000000 0.000000 0.000000 0.000000 0.000000 10.000000 
Rope1_Seg01 0.000000 0.000000 0.000000 0.000000 0.000000 0.000000 10.000000 
Rope1_Seg02 0.000000 0.000000 0.000000 0.000000 0.000000 0.000000 10.000000 
Rope1_Seg03 0.000000 0.000000 0.000000 0.000000 0.000000 0.000000 10.000000 
Rope1_Seg04 0.000000 0.000000 0.000000 0.000000 0.000000 0.000000 10.000000 
Rope1_Seg05 0.000000 0.000000 0.000000 0.000000 0.000000 0.000000 10.000000 
Rope1_Seg06 0.000000 0.000000 0.000000 0.000000 0.000000 0.000000 10.000000 
Rope1_Seg07 0.000000 0.000000 0.000000 0.000000 0.000000 0.000000 10.000000 
Rope1_Seg09 0.000000 0.000000 0.000000 0.000000 0.000000 0.000000 10.000000 
L_mid_hand01 0.000000 0.000000 0.000000 0.000000 0.000000 0.000000 10.000000 
L_mid_hand02 0.000000 0.000000 0.000000 0.000000 0.000000 0.000000 10.000000 
L_mid_hand03 0.000000 0.000000 0.000000 0.000000 0.000000 0.000000 10.000000 
null_rope02_connect 0.000000 0.000000 0.000000 0.000000 0.000000 0.000000 10.000000 
Rope2_Seg01 0.000000 0.000000 0.000000 0.000000 0.000000 0.000000 10.000000 
Rope2_Seg02 0.000000 0.000000 0.000000 0.000000 0.000000 0.000000 10.000000 
Rope2_Seg03 0.000000 0.000000 0.000000 0.000000 0.000000 0.000000 10.000000 
Rope2_Seg04 0.000000 0.000000 0.000000 0.000000 0.000000 0.000000 10.000000 
Rope2_Seg05 0.000000 0.000000 0.000000 0.000000 0.000000 0.000000 10.000000 
Rope2_Seg06 0.000000 0.000000 0.000000 0.000000 0.000000 0.000000 10.000000 
Rope2_Seg07 0.000000 0.000000 0.000000 0.000000 0.000000 0.000000 10.000000 
Rope2_Seg09 0.000000 0.000000 0.000000 0.000000 0.000000 0.000000 10.000000 
R_mid_hand01 0.000000 0.000000 0.000000 0.000000 0.000000 0.000000 10.000000 
R_mid_hand02 0.000000 0.000000 0.000000 0.000000 0.000000 0.000000 10.000000 
R_mid_hand03 0.000000 0.000000 0.000000 0.000000 0.000000 0.000000 10.000000 
spine02 0.000000 0.000000 0.000000 0.000000 0.000000 0.000000 10.000000 
spine03 0.000000 0.000000 0.000000 0.000000 0.000000 0.000000 10.000000 
pelvis 0.000000 0.000000 0.000000 0.000000 0.000000 0.000000 10.000000 
null_rope03_connect 0.000000 0.000000 0.000000 0.000000 0.000000 0.000000 10.000000 
null_rope04_connect 0.000000 0.000000 0.000000 0.000000 0.000000 0.000000 10.000000 
Rope3_Seg01 0.000000 0.000000 0.000000 0.000000 0.000000 0.000000 10.000000 
Rope3_Seg02 0.000000 0.000000 0.000000 0.000000 0.000000 0.000000 10.000000 
Rope3_Seg03 0.000000 0.000000 0.000000 0.000000 0.000000 0.000000 10.000000 
Rope3_Seg04 0.000000 0.000000 0.000000 0.000000 0.000000 0.000000 10.000000 
Rope3_Seg05 0.000000 0.000000 0.000000 0.000000 0.000000 0.000000 10.000000 
Rope3_Seg06 0.000000 0.000000 0.000000 0.000000 0.000000 0.000000 10.000000 
Rope3_Seg07 0.000000 0.000000 0.000000 0.000000 0.000000 0.000000 10.000000 
Rope3_Seg08 0.000000 0.000000 0.000000 0.000000 0.000000 0.000000 10.000000 
Rope3_Seg09 0.000000 0.000000 0.000000 0.000000 0.000000 0.000000 10.000000 
R_rear_hand01 0.000000 0.000000 0.000000 0.000000 0.000000 0.000000 10.000000 
R_rear_hand02 0.000000 0.000000 0.000000 0.000000 0.000000 0.000000 10.000000 
R_rear_hand03 0.000000 0.000000 0.000000 0.000000 0.000000 0.000000 10.000000 
Rope4_Seg01 0.000000 0.000000 0.000000 0.000000 0.000000 0.000000 10.000000 
Rope4_Seg02 0.000000 0.000000 0.000000 0.000000 0.000000 0.000000 10.000000 
Rope4_Seg03 0.000000 0.000000 0.000000 0.000000 0.000000 0.000000 10.000000 
Rope4_Seg04 0.000000 0.000000 0.000000 0.000000 0.000000 0.000000 10.000000 
Rope4_Seg05 0.000000 0.000000 0.000000 0.000000 0.000000 0.000000 10.000000 
Rope4_Seg06 0.000000 0.000000 0.000000 0.000000 0.000000 0.000000 10.000000 
Rope4_Seg07 0.000000 0.000000 0.000000 0.000000 0.000000 0.000000 10.000000 
Rope4_Seg08 0.000000 0.000000 0.000000 0.000000 0.000000 0.000000 10.000000 
Rope4_Seg09 0.000000 0.000000 0.000000 0.000000 0.000000 0.000000 10.000000 
L_rear_hand01 0.000000 0.000000 0.000000 0.000000 0.000000 0.000000 10.000000 
L_rear_hand02 0.000000 0.000000 0.000000 0.000000 0.000000 0.000000 10.000000 
L_rear_hand03 0.000000 0.000000 0.000000 0.000000 0.000000 0.000000 10.000000 
#Beginning of Data. Separated by tabs
#Fr	Tx	Ty	Tz	Rx	Ry	Rz	SF
[MASTER]
53 -63.192875 5062.925293 176.046539 0.001660 0.001660 0.001660 5066.379395
54 -55.674232 5202.436523 150.896774 0.001660 0.001660 0.001660 5204.922363
[root]
53 35.348080 -112.189308 963.294556 -91.578865 -31.579432 -89.935684 970.449524
54 30.460814 -97.801506 1020.707031 -91.601837 -28.289991 -89.864716 1025.834229
[chest]
53 -84.512650 -34.090519 0.000000 2.256228 -8.676644 141.477264 91.129311
54 -84.512650 -34.090519 0.000000 1.417816 -7.560839 145.287338 91.129311
[L_mid_tent01]
53 27.299185 22.178974 -249.918701 -18.755610 18.965523 23.841759 252.381683
54 27.299187 22.178970 -249.918701 -19.116245 17.997894 22.251673 252.381683
[R_mid_tent01]
53 23.228794 24.509907 226.238495 -169.224564 -22.057377 31.526361 228.744751
54 23.228794 24.509907 226.238495 -168.606476 -21.501862 30.426964 228.744751
[spine01]
53 -0.361383 -0.195265 0.000000 -0.000001 -0.000007 22.052340 0.410763
54 -0.361383 -0.195265 0.000000 -0.000001 -0.000007 22.052340 0.410763
[Bip01_Neck]
53 165.484543 71.581718 0.000119 176.643677 -1.657967 43.431911 180.302734
54 165.484543 71.581718 0.000119 176.643677 -1.657967 43.431911 180.302734
[L_humerus]
53 -13.983130 -135.272980 -120.471481 1.209294 75.723686 91.471909 181.680161
54 -13.983130 -135.272980 -120.471481 -0.143001 74.975998 90.108482 181.680161
[R_humerus]
53 -13.983309 -135.273102 125.287651 31.074230 -77.547768 64.366951 184.909012
54 -13.983309 -135.273102 125.287651 30.893309 -76.634331 64.583061 184.909012
[weapon_bone]
53 235.964890 -300.705902 0.000000 0.000000 -89.951546 -128.212341 382.234833
54 235.964890 -300.705902 0.000000 0.000000 -89.951546 -128.212341 382.234833
[Bip01_Head]
53 203.286041 162.408539 31.616489 4.962490 2.797846 -43.898750 262.109436
54 203.286057 162.408554 31.616493 4.962490 2.797846 -43.898743 262.109436
[eye_left_bone]
53 -24.626970 125.451866 -64.772606 0.000000 -90.000000 -99.840431 143.318359
54 -24.626970 125.451866 -64.772606 0.000000 -90.000000 -99.840431 143.318359
[eye_right_bone]
53 -24.626970 125.451866 64.327362 0.000000 -89.965736 80.156380 143.117676
54 -24.626970 125.451866 64.327362 0.000000 -89.965736 80.156380 143.117676
[L_forearm]
53 322.776093 0.000000 -0.000119 0.000106 0.002345 -84.800766 322.776093
54 322.776093 0.000000 -0.000119 0.000119 -0.002344 -95.807610 322.776093
[L_front_hand]
53 241.149185 -0.042021 -3.300071 0.836591 -1.835726 -27.423458 241.171753
54 241.149185 -0.042021 -3.300071 0.836591 -1.835726 -27.423462 241.171753
[L_weapon_bone]
53 156.183838 0.000000 0.000000 0.000014 0.000007 0.000001 156.183838
54 156.183838 0.000000 0.000000 0.000014 0.000007 0.000001 156.183838
[L_front_hand01_01]
53 86.095154 20.947098 -0.655860 -0.366594 -0.477154 75.385574 88.609184
54 86.095154 20.947098 -0.655860 -0.366594 -0.477154 75.385574 88.609184
[L_front_hand02_01]
53 86.935165 -11.437475 24.513514 154.399796 -59.883835 -61.369587 91.046425
54 86.935165 -11.437475 24.513514 154.399796 -59.883835 -61.369587 91.046425
[L_front_hand03_01]
53 86.637497 -14.123976 -20.424902 -153.913849 58.118122 -62.702866 90.126129
54 86.637497 -14.123976 -20.424902 -153.913879 58.118130 -62.702892 90.126129
[L_front_hand01_02]
53 71.020905 -0.000179 0.000030 0.000334 -0.002323 -106.379684 71.020905
54 71.020905 -0.000179 0.000030 0.000334 -0.002323 -106.379684 71.020905
[L_front_hand02_02]
53 71.020927 -0.000119 0.000060 0.000334 -0.002323 -106.379684 71.020927
54 71.020927 -0.000119 0.000060 0.000334 -0.002323 -106.379684 71.020927
[L_front_hand03_02]
53 71.020905 -0.000060 0.000060 0.000334 -0.002323 -106.379684 71.020905
54 71.020905 -0.000060 0.000060 0.000334 -0.002323 -106.379684 71.020905
[R_forearm]
53 322.776428 -0.000060 0.000030 0.211900 -0.028913 -82.576973 322.776428
54 322.776428 -0.000060 0.000030 0.209504 0.012587 -94.339211 322.776428
[R_front_hand]
53 238.847015 -0.006795 2.210259 42.936222 -10.646152 -26.312963 238.857239
54 238.847015 -0.006795 2.210259 42.936222 -10.646152 -26.312963 238.857239
[R_weapon_bone]
53 155.664093 0.002503 -0.000030 0.003487 0.001180 -90.988930 155.664078
54 155.664093 0.002503 -0.000030 0.003487 0.001180 -90.988930 155.664078
[R_front_hand01_01]
53 87.624611 14.231146 22.918642 -154.633484 -59.950607 61.746033 91.683487
54 87.624611 14.231146 22.918642 -154.633484 -59.950619 61.746037 91.683487
[R_front_hand02_01]
53 89.356956 14.367283 -19.491137 154.602661 58.302849 63.744389 92.579636
54 89.356956 14.367283 -19.491137 154.602661 58.302849 63.744389 92.579636
[R_front_hand03_01]
53 87.286232 -22.307278 -0.143439 0.162155 -0.423168 -75.767921 90.091743
54 87.286232 -22.307278 -0.143439 0.162155 -0.423168 -75.767921 90.091743
[R_front_hand01_02]
53 71.020905 0.000060 0.000119 0.002323 -0.000334 106.381714 71.020905
54 71.020905 0.000060 0.000119 0.002323 -0.000334 106.381714 71.020905
[R_front_hand02_02]
53 71.020844 -0.000030 -0.000119 0.002323 -0.000334 106.381714 71.020836
54 71.020844 -0.000030 -0.000119 0.002323 -0.000334 106.381714 71.020836
[R_front_hand03_02]
53 71.020905 0.000000 0.000030 0.002323 -0.000334 106.381714 71.020905
54 71.020905 0.000000 0.000030 0.002323 -0.000334 106.381714 71.020905
[null_rope01_connect]
53 328.732483 0.000000 -0.000238 -129.617447 -62.131901 -135.661545 328.732483
54 328.732483 0.000000 -0.000238 -133.454498 -62.561138 -133.410049 328.732483
[Rope1_Seg01]
53 0.000009 -0.000542 0.000000 -18.697870 -12.900241 -159.799622 0.000543
54 0.000008 -0.000552 0.000000 -31.052776 -22.146299 -148.268494 0.000552
[Rope1_Seg02]
53 139.999863 -0.000179 0.000000 42.568882 46.000992 25.395693 139.999863
54 139.999863 -0.000179 0.000000 59.894962 44.687782 30.731043 139.999863
[Rope1_Seg03]
53 139.999924 0.000060 -0.000060 1.865879 20.340525 -3.282514 139.999924
54 139.999924 0.000060 -0.000060 1.096566 26.045553 -10.135402 139.999924
[Rope1_Seg04]
53 139.999924 -0.000060 -0.000119 -0.080868 6.721306 -1.320989 139.999924
54 139.999924 -0.000060 -0.000119 -0.360503 8.305634 -3.620285 139.999924
[Rope1_Seg05]
53 139.999832 0.000119 -0.000060 -0.097795 2.231883 -0.534494 139.999832
54 139.999832 0.000119 -0.000060 -0.164070 2.498085 -1.020987 139.999832
[Rope1_Seg06]
53 139.999954 0.000119 -0.000060 -0.040642 0.847255 -0.369576 139.999954
54 139.999954 0.000119 -0.000060 -0.074504 0.866991 -0.260980 139.999954
[Rope1_Seg07]
53 139.999985 0.000060 0.000000 0.057412 -0.418548 -0.369460 139.999985
54 139.999985 0.000060 0.000000 0.023488 -0.641398 0.516037 139.999985
[Rope1_Seg09]
53 121.602913 0.000119 -0.000089 -89.793175 -1.359789 0.847147 121.602913
54 121.602913 0.000119 -0.000089 -89.793175 -1.359789 0.847147 121.602913
[L_mid_hand01]
53 103.859421 1.038730 8.195221 130.544373 -67.584534 -38.866943 104.187431
54 103.859421 1.038730 8.195221 130.544373 -67.584534 -38.866943 104.187431
[L_mid_hand02]
53 105.572853 -4.139662 -10.864139 -168.923172 43.409321 -73.498909 106.211075
54 105.572853 -4.139662 -10.864139 -168.923172 43.409309 -73.498886 106.211075
[L_mid_hand03]
53 104.641464 17.579376 -3.913581 -6.012627 17.808174 74.893669 106.179977
54 104.641464 17.579376 -3.913581 -6.012627 17.808174 74.893669 106.179977
[null_rope02_connect]
53 328.732849 0.000179 -0.000119 -114.831558 66.838181 -22.596588 328.732849
54 328.732849 0.000179 -0.000119 -118.844360 67.039070 -24.348446 328.732849
[Rope2_Seg01]
53 0.000095 0.000552 0.000000 91.408981 -6.597222 -6.886245 0.000560
54 0.000095 0.000560 0.000000 95.895622 -11.814434 -15.297056 0.000568
[Rope2_Seg02]
53 139.999741 -0.000060 -0.000119 -35.132259 -14.425312 -39.550785 139.999756
54 139.999741 -0.000060 -0.000119 -47.883839 -18.003269 -47.008984 139.999756
[Rope2_Seg03]
53 140.000107 0.000030 0.000000 -14.042864 10.321516 -36.359371 140.000107
54 140.000107 0.000030 0.000000 -12.366596 17.322477 -33.048244 140.000107
[Rope2_Seg04]
53 139.999802 0.000000 -0.000060 -1.140996 6.691271 -14.430563 139.999802
54 139.999802 0.000000 -0.000060 -0.401340 6.621855 -9.265697 139.999802
[Rope2_Seg05]
53 139.999985 -0.000060 0.000119 0.047112 2.169383 -2.302675 139.999985
54 139.999985 -0.000060 0.000119 -0.065470 2.212046 -0.914703 139.999985
[Rope2_Seg06]
53 139.999893 -0.000030 -0.000119 -0.329464 1.164835 1.976815 139.999893
54 139.999893 -0.000030 -0.000119 -0.487766 1.206075 2.855664 139.999893
[Rope2_Seg07]
53 139.999893 0.000060 -0.000060 -0.737658 0.747999 6.647863 139.999893
54 139.999893 0.000060 -0.000060 -0.849882 0.952428 6.615931 139.999893
[Rope2_Seg09]
53 121.338966 0.000089 -0.000060 33.793236 -1.359788 -0.847141 121.338966
54 121.338966 0.000089 -0.000060 33.793236 -1.359788 -0.847141 121.338966
[R_mid_hand01]
53 104.680779 11.144459 -10.335981 -16.212063 45.237247 70.462852 105.778534
54 104.680779 11.144459 -10.335981 -16.212063 45.237247 70.462852 105.778534
[R_mid_hand02]
53 104.070427 2.443552 8.231699 49.067368 -67.749771 39.286453 104.424065
54 104.070427 2.443552 8.231699 49.067371 -67.749794 39.286461 104.424065
[R_mid_hand03]
53 106.028137 -11.221827 -5.996406 -177.101105 15.551026 -76.585571 106.788818
54 106.028137 -11.221827 -5.996406 -177.101105 15.551026 -76.585571 106.788818
[spine02]
53 129.756927 0.001550 0.000119 0.374665 -4.043322 -13.143033 129.756927
54 129.756927 0.001550 0.000119 0.370794 -4.043714 -13.079796 129.756927
[spine03]
53 78.613914 0.081769 -4.898989 1.906081 3.828254 16.613346 78.766457
54 78.613907 0.081772 -4.898989 1.903936 3.828889 16.585777 78.766441
[pelvis]
53 169.435242 0.051022 0.000000 -0.060912 -0.180075 14.372021 169.435257
54 169.435242 0.051022 0.000000 -0.060815 -0.180108 14.310549 169.435257
[null_rope03_connect]
53 -1.257226 -2.466202 137.391083 0.000000 -89.575722 81.699081 137.418976
54 -1.257226 -2.466202 137.391083 0.000000 -89.587402 78.455841 137.418976
[null_rope04_connect]
53 -1.259640 -2.480268 -137.844437 0.000000 -89.575722 81.699081 137.872513
54 -1.259640 -2.480268 -137.844437 0.000000 -89.587402 78.455841 137.872513
[Rope3_Seg01]
53 0.000000 0.000000 0.000000 26.545748 -32.247364 -92.107796 0.000000
54 0.000000 0.000000 0.000000 20.961464 -13.881586 -96.272621 0.000000
[Rope3_Seg02]
53 139.999924 -0.000119 0.000060 2.732672 9.554922 23.833363 139.999924
54 139.999924 -0.000119 0.000060 2.587960 0.306514 26.980379 139.999924
[Rope3_Seg03]
53 139.999924 -0.000119 0.000119 1.827428 11.189540 7.242663 139.999924
54 139.999924 -0.000119 0.000119 0.905824 7.889486 12.198308 139.999924
[Rope3_Seg04]
53 139.999924 0.000119 0.000000 -3.426869 -5.173989 8.296130 139.999924
54 139.999924 0.000119 0.000000 -3.385657 -4.695436 8.849590 139.999924
[Rope3_Seg05]
53 139.999924 -0.000238 0.000060 -9.560092 -17.863981 12.076835 139.999924
54 139.999924 -0.000238 0.000060 -8.971839 -17.764935 10.745430 139.999924
[Rope3_Seg06]
53 139.999893 -0.000119 -0.000060 -4.810054 -12.647006 6.394382 139.999893
54 139.999893 -0.000119 -0.000060 -4.853036 -14.144964 6.053093 139.999893
[Rope3_Seg07]
53 139.999771 0.000060 -0.000119 -1.791183 -6.681715 3.203302 139.999771
54 139.999771 0.000060 -0.000119 -1.606347 -7.179624 3.031702 139.999771
[Rope3_Seg08]
53 139.999985 -0.000060 0.000000 -0.684188 -4.009955 1.777558 139.999985
54 139.999985 -0.000060 0.000000 -0.535352 -4.255238 1.664732 139.999985
[Rope3_Seg09]
53 90.185997 -0.000179 -0.000060 89.793228 -1.359877 -0.847183 90.185997
54 90.185997 -0.000179 -0.000060 89.793228 -1.359877 -0.847183 90.185997
[R_rear_hand01]
53 103.366196 -6.073594 -10.757982 -177.714203 24.565960 -73.910950 104.101845
54 103.366196 -6.073594 -10.757982 -177.714203 24.565960 -73.910950 104.101845
[R_rear_hand02]
53 100.509819 12.039542 -7.992327 -12.874829 36.868488 72.167213 101.543350
54 100.509819 12.039542 -7.992327 -12.874829 36.868488 72.167213 101.543350
[R_rear_hand03]
53 101.539970 5.215704 5.435467 71.484581 -71.816628 21.513813 101.819031
54 101.539970 5.215704 5.435467 71.484581 -71.816628 21.513813 101.819031
[Rope4_Seg01]
53 0.000010 0.000038 -0.000114 -87.839676 -7.934911 -144.111313 0.000121
54 0.000010 0.000038 -0.000114 -95.748238 -0.498397 -133.818710 0.000121
[Rope4_Seg02]
53 139.999985 0.000060 0.000119 0.855403 -0.896149 -1.637304 139.999985
54 139.999985 0.000060 0.000119 2.883807 3.640108 -3.723636 139.999985
[Rope4_Seg03]
53 139.999924 0.000000 -0.000238 0.194111 -7.206272 -3.212249 139.999924
54 139.999924 0.000000 -0.000238 1.578604 -3.225940 -4.304098 139.999924
[Rope4_Seg04]
53 139.999985 0.000000 0.000119 0.123310 -2.005392 -1.014571 139.999985
54 139.999985 0.000000 0.000119 0.722166 -2.687927 -2.657339 139.999985
[Rope4_Seg05]
53 139.999802 -0.000060 -0.000119 1.138900 10.530717 3.603840 139.999802
54 139.999802 -0.000060 -0.000119 1.253603 9.770073 2.680385 139.999802
[Rope4_Seg06]
53 139.999924 0.000000 0.000060 7.404603 26.294472 9.459156 139.999924
54 139.999924 0.000000 0.000060 7.300910 26.325436 8.927094 139.999924
[Rope4_Seg07]
53 139.999802 0.000000 0.000000 27.203548 18.935827 4.581812 139.999802
54 139.999802 0.000000 0.000000 28.388912 20.961372 4.629116 139.999802
[Rope4_Seg08]
53 139.999924 0.000000 0.000119 76.948418 8.797241 -2.117939 139.999924
54 139.999924 0.000000 0.000119 67.542503 9.158854 -2.695632 139.999924
[Rope4_Seg09]
53 90.185791 0.000060 0.000060 -135.617828 2.228885 0.850567 90.185791
54 90.185791 0.000060 0.000060 -135.617828 2.228885 0.850567 90.185791
[L_rear_hand01]
53 101.696655 -8.392275 -7.654577 -12.874829 -36.868488 107.832764 102.329041
54 101.696655 -8.392275 -7.654577 -12.874829 -36.868488 107.832764 102.329041
[L_rear_hand02]
53 102.726799 -1.568258 5.773216 71.484581 71.816628 158.486160 102.900848
54 102.726799 -1.568258 5.773216 71.484581 71.816628 158.486160 102.900848
[L_rear_hand03]
53 104.552910 9.721220 -10.420293 -177.714203 -24.565960 -106.089035 105.519653
54 104.552910 9.721220 -10.420293 -177.714203 -24.565960 -106.089035 105.519653
